<?xml version="1.0" encoding="UTF-8"?><svg id="Layer_2" xmlns="http://www.w3.org/2000/svg" viewBox="0 0 103.95 12.87"><defs><style>.cls-1{fill:#213135;stroke-width:0px;}.cls-2{opacity:.45;}</style></defs><g id="Layer_1-2"><g class="cls-2"><rect class="cls-1" x="83.16" y="6.44" width="1.39" height="6.44"/><rect class="cls-1" x="85.93" y="6.44" width="1.39" height="6.44"/><rect class="cls-1" x="88.7" width="1.39" height="6.44"/><rect class="cls-1" x="91.47" y="6.44" width="1.39" height="6.44"/><rect class="cls-1" x="94.25" y="6.44" width="1.39" height="6.44"/><rect class="cls-1" x="97.02" width="1.39" height="12.87"/><rect class="cls-1" x="99.79" width="1.39" height="6.44"/><rect class="cls-1" x="102.56" width="1.39" height="12.87"/><rect class="cls-1" y="6.44" width="1.39" height="6.44"/><rect class="cls-1" x="2.77" width="1.39" height="6.44"/><rect class="cls-1" x="5.54" y="6.44" width="1.39" height="6.44"/><rect class="cls-1" x="8.32" y="6.44" width="1.39" height="6.44"/><rect class="cls-1" x="11.09" width="1.39" height="6.44"/><rect class="cls-1" x="13.86" y="6.44" width="1.39" height="6.44"/><rect class="cls-1" x="16.63" width="1.39" height="6.44"/><rect class="cls-1" x="19.4" width="1.39" height="12.87"/><rect class="cls-1" x="22.18" y="6.44" width="1.39" height="6.44"/><rect class="cls-1" x="24.95" y="6.44" width="1.39" height="6.44"/><rect class="cls-1" x="27.72" width="1.39" height="12.87"/><rect class="cls-1" x="30.49" width="1.39" height="6.44"/><rect class="cls-1" x="33.26" y="6.44" width="1.39" height="6.44"/><rect class="cls-1" x="36.03" width="1.39" height="12.87"/><rect class="cls-1" x="38.81" width="1.39" height="6.44"/><rect class="cls-1" x="41.58" width="1.39" height="6.44"/><rect class="cls-1" x="44.35" y="6.44" width="1.39" height="6.44"/><rect class="cls-1" x="47.12" y="6.44" width="1.39" height="6.44"/><rect class="cls-1" x="49.89" width="1.39" height="6.44"/><rect class="cls-1" x="52.67" width="1.39" height="6.44"/><rect class="cls-1" x="55.44" y="6.44" width="1.39" height="6.44"/><rect class="cls-1" x="58.21" width="1.39" height="6.44"/><rect class="cls-1" x="60.98" y="6.44" width="1.39" height="6.44"/><rect class="cls-1" x="63.75" width="1.39" height="12.87"/><rect class="cls-1" x="66.53" y="6.44" width="1.39" height="6.44"/><rect class="cls-1" x="69.3" width="1.39" height="6.44"/><rect class="cls-1" x="72.07" y="6.44" width="1.39" height="6.44"/><rect class="cls-1" x="74.84" y="6.44" width="1.39" height="6.44"/><rect class="cls-1" x="77.61" width="1.39" height="6.44"/><rect class="cls-1" x="80.39" y="6.44" width="1.39" height="6.44"/></g></g></svg>