<?xml version="1.0" encoding="UTF-8"?><svg id="Layer_2" xmlns="http://www.w3.org/2000/svg" viewBox="0 0 124 109.08"><defs><style>.cls-1{fill:#1a1a1a;stroke-width:0px;}</style></defs><g id="Layer_1-2"><polygon class="cls-1" points="63.16 62.19 66.46 67.62 63.55 78.28 57.74 83.12 43.21 79.24 34.1 71.11 31.39 44.56 36.81 35.07 48.92 31.39 73.43 33.33 83.89 39.23 92.81 67.72 88.74 97.65 71.49 109.08 24.41 107.92 6.78 89.51 0 57.74 6.01 25.67 29.64 4.07 66.46 0 102.11 14.34 118.77 43.01 124 62.78 123.03 84.28 121.09 88.16 107.73 87.77 105.4 82.93 104.43 63.16 100.36 46.02 89.9 26.06 66.65 18.02 32.74 21.41 23.44 30.52 17.63 56.96 23.06 80.5 32.94 89.8 69.36 88.93 73.82 84.77 76.53 67.33 72.08 52.22 67.81 49.99 48.44 49.6 46.55 52.12 47.03 63.79 49.99 66.07 63.16 62.19"/></g></svg>